# xmcd
#
# Track frame offsets: 
#        150
#        15787
#        42116
#        62446
#        83459
#        105809
#        126677
#        144239
#        163439
#        183213
#        198854
#        214897
#        236967
#
# Disc length: 3424 seconds
#
# Revision: 2
# Processed by: cddbd v1.5.2PL0 Copyright (c) Steve Scherf et al.
# Submitted via: ExactAudioCopy v1.0b3
#
DISCID=a40d5e0d
DTITLE=Faith Hill - Deep Tracks
DYEAR=2016
DGENRE=Country
TTITLE0=Better Days (1998 Faith)
TTITLE1=Somebody Stand by Me (1998 Faith)
TTITLE2=If I Should Fall Behind (1999 Breathe)
TTITLE3=Free (2002 Cry)
TTITLE4=If This Is the End (2002 Cry)
TTITLE5=Back to You (2002 Cry)
TTITLE6=Unsaveable (2002 Cry)
TTITLE7=If You Ask (2005 Fireflies)
TTITLE8=You Stay with Me (2005 Fireflies)
TTITLE9=Wish for You (2005 Fireflies)
TTITLE10=Boy (Previously Unreleased)
TTITLE11=Why (Previously Unreleased)
TTITLE12=Come to Jesus (Previously Unreleased)
EXTD=YEAR: 2016
EXTT0=
EXTT1=
EXTT2=
EXTT3=
EXTT4=
EXTT5=
EXTT6=
EXTT7=
EXTT8=
EXTT9=
EXTT10=
EXTT11=
EXTT12=
PLAYORDER=
